<svg width="68" height="68" viewBox="0 0 68 68" fill="none" xmlns="http://www.w3.org/2000/svg">
<g clip-path="url(#clip0_258_33)">
<path fill-rule="evenodd" clip-rule="evenodd" d="M0 13.244C0 11.3281 0.761095 9.49063 2.11585 8.13587C3.47061 6.78111 5.30805 6.02002 7.22397 6.02002H60.1998C62.1157 6.02002 63.9531 6.78111 65.3079 8.13587C66.6626 9.49063 67.4237 11.3281 67.4237 13.244V14.8911L35.5564 36.1392C35.0001 36.4739 34.361 36.6458 33.7119 36.6352C33.0627 36.6458 32.4236 36.4739 31.8673 36.1392L0 14.8911V13.244ZM0 22.1247V54.1798C0 56.0957 0.761095 57.9332 2.11585 59.2879C3.47061 60.6427 5.30805 61.4038 7.22397 61.4038H60.1998C62.1157 61.4038 63.9531 60.6427 65.3079 59.2879C66.6626 57.9332 67.4237 56.0957 67.4237 54.1798V22.1247L38.8794 41.1574L38.8553 41.1767C37.3187 42.1539 35.5329 42.6672 33.7119 42.6552C31.9059 42.6552 30.0854 42.164 28.5684 41.1767L28.5443 41.1574L0 22.1247Z" fill="white"/>
</g>
<defs>
<clipPath id="clip0_258_33">
<rect width="67.4237" height="67.4237" fill="white"/>
</clipPath>
</defs>
</svg>
