<svg width="67" height="67" viewBox="0 0 67 67" fill="none" xmlns="http://www.w3.org/2000/svg">
<path fill-rule="evenodd" clip-rule="evenodd" d="M33.0509 1.79396C50.1146 1.77979 64.3406 16.0341 64.3406 33.0648C64.3406 50.1096 50.1146 64.3214 33.0509 64.312C28.5667 64.3144 24.1342 63.3548 20.0525 61.498L4.56582 64.2978C4.15473 64.3731 3.73102 64.3379 3.33798 64.1958C2.94495 64.0538 2.59667 63.8099 2.32874 63.4891C2.06081 63.1684 1.88283 62.7823 1.81299 62.3702C1.74314 61.9582 1.78393 61.535 1.93119 61.1438L6.36945 49.3494C3.37936 44.4417 1.79507 38.8069 1.78955 33.0601C1.79427 16.0294 16.0061 1.8034 33.0509 1.79396ZM48.7501 46.3465C45.2703 49.1605 39.883 52.0029 34.7318 48.6978C27.98 44.3587 22.0025 38.6598 17.6681 31.9033C15.1232 27.9466 17.517 21.6103 21.096 17.7481C22.5219 16.2041 24.8732 16.4496 26.4266 17.8661L29.6939 20.8501C30.6854 21.7567 30.7232 23.3337 30.1047 24.5329C29.1273 26.4121 28.5513 28.9381 29.76 30.822C31.2803 33.1828 33.1501 35.5105 37.6167 36.8656C38.967 37.2811 40.6998 37.1017 42.173 36.5068C43.4053 36.0063 44.9681 36.011 45.8794 36.9837L48.9201 40.2179C50.5962 42.0027 50.6529 44.8073 48.7501 46.3465Z" fill="white"/>
</svg>
