<svg width="67" height="67" viewBox="0 0 67 67" fill="none" xmlns="http://www.w3.org/2000/svg">
<path fill-rule="evenodd" clip-rule="evenodd" d="M12.0185 0C8.83099 0 5.77404 1.26623 3.52013 3.52013C1.26623 5.77404 0 8.83099 0 12.0185V54.0832C0 57.2707 1.26623 60.3277 3.52013 62.5816C5.77404 64.8355 8.83099 66.1017 12.0185 66.1017H54.0832C57.2707 66.1017 60.3277 64.8355 62.5816 62.5816C64.8355 60.3277 66.1017 57.2707 66.1017 54.0832V12.0185C66.1017 8.83099 64.8355 5.77404 62.5816 3.52013C60.3277 1.26623 57.2707 0 54.0832 0H12.0185ZM10.5162 24.037C10.5162 20.451 11.9407 17.012 14.4763 14.4763C17.012 11.9407 20.451 10.5162 24.037 10.5162H42.0647C45.6507 10.5162 49.0897 11.9407 51.6254 14.4763C54.161 17.012 55.5855 20.451 55.5855 24.037V42.0647C55.5855 45.6507 54.161 49.0897 51.6254 51.6254C49.0897 54.161 45.6507 55.5855 42.0647 55.5855H24.037C20.451 55.5855 17.012 54.161 14.4763 51.6254C11.9407 49.0897 10.5162 45.6507 10.5162 42.0647V24.037ZM24.037 13.5208C21.2479 13.5208 18.5731 14.6288 16.6009 16.6009C14.6288 18.5731 13.5208 21.2479 13.5208 24.037V42.0647C13.5208 44.8538 14.6288 47.5286 16.6009 49.5008C18.5731 51.4729 21.2479 52.5809 24.037 52.5809H42.0647C44.8538 52.5809 47.5286 51.4729 49.5008 49.5008C51.4729 47.5286 52.5809 44.8538 52.5809 42.0647V24.037C52.5809 21.2479 51.4729 18.5731 49.5008 16.6009C47.5286 14.6288 44.8538 13.5208 42.0647 13.5208H24.037ZM48.074 21.5341C48.074 22.1983 47.8101 22.8353 47.3405 23.305C46.8708 23.7746 46.2338 24.0385 45.5696 24.0385C44.9054 24.0385 44.2684 23.7746 43.7988 23.305C43.3291 22.8353 43.0653 22.1983 43.0653 21.5341C43.0653 20.8699 43.3291 20.2329 43.7988 19.7633C44.2684 19.2936 44.9054 19.0298 45.5696 19.0298C46.2338 19.0298 46.8708 19.2936 47.3405 19.7633C47.8101 20.2329 48.074 20.8699 48.074 21.5341ZM21.5341 33.0508C21.5341 29.9964 22.7475 27.0671 24.9073 24.9073C27.0671 22.7475 29.9964 21.5341 33.0508 21.5341C36.1053 21.5341 39.0346 22.7475 41.1944 24.9073C43.3542 27.0671 44.5676 29.9964 44.5676 33.0508C44.5676 36.1053 43.3542 39.0346 41.1944 41.1944C39.0346 43.3542 36.1053 44.5676 33.0508 44.5676C29.9964 44.5676 27.0671 43.3542 24.9073 41.1944C22.7475 39.0346 21.5341 36.1053 21.5341 33.0508ZM33.0508 24.5388C30.7933 24.5388 28.6282 25.4356 27.0319 27.0319C25.4356 28.6282 24.5388 30.7933 24.5388 33.0508C24.5388 35.3084 25.4356 37.4735 27.0319 39.0698C28.6282 40.6661 30.7933 41.5629 33.0508 41.5629C35.3084 41.5629 37.4735 40.6661 39.0698 39.0698C40.6661 37.4735 41.5629 35.3084 41.5629 33.0508C41.5629 30.7933 40.6661 28.6282 39.0698 27.0319C37.4735 25.4356 35.3084 24.5388 33.0508 24.5388Z" fill="white"/>
</svg>
