<svg width="64" height="64" viewBox="0 0 64 64" fill="none" xmlns="http://www.w3.org/2000/svg">
<rect width="64" height="64" rx="7.05085" fill="white"/>
<path fill-rule="evenodd" clip-rule="evenodd" d="M3.12541 20.5143C2.82516 24.3354 2.67216 28.1667 2.66675 31.9996C2.66675 36.3516 2.88008 40.4449 3.15208 43.8396C3.54141 48.6849 7.23475 52.3889 12.0001 52.7196C16.7841 53.0529 23.4801 53.3329 32.0001 53.3329C40.5201 53.3329 47.2161 53.0529 52.0001 52.7196C56.7654 52.3889 60.4588 48.6849 60.8481 43.8396C61.1201 40.4449 61.3334 36.3516 61.3334 31.9996C61.3334 27.7969 61.1361 23.8396 60.8748 20.5143C60.7087 18.122 59.6833 15.8704 57.9876 14.1747C56.292 12.479 54.0404 11.4536 51.6481 11.2876C46.9068 10.9516 40.4374 10.6663 32.0001 10.6663C23.5628 10.6663 17.0907 10.9516 12.3521 11.2876C9.95979 11.4536 7.70821 12.479 6.01253 14.1747C4.31686 15.8704 3.29145 18.122 3.12541 20.5143ZM41.3334 31.9996L26.6668 23.9996V39.9996L41.3334 31.9996Z" fill="black"/>
</svg>
